<?xml version="1.0" encoding="UTF-8" standalone="no"?>
<!-- Created with Inkscape (http://www.inkscape.org/) -->
<svg
   xmlns:dc="http://purl.org/dc/elements/1.1/"
   xmlns:cc="http://creativecommons.org/ns#"
   xmlns:rdf="http://www.w3.org/1999/02/22-rdf-syntax-ns#"
   xmlns:svg="http://www.w3.org/2000/svg"
   xmlns="http://www.w3.org/2000/svg"
   xmlns:xlink="http://www.w3.org/1999/xlink"
   xmlns:sodipodi="http://sodipodi.sourceforge.net/DTD/sodipodi-0.dtd"
   xmlns:inkscape="http://www.inkscape.org/namespaces/inkscape"
   width="183"
   height="354"
   id="svg2"
   sodipodi:version="0.32"
   inkscape:version="0.46"
   version="1.0"
   sodipodi:docname="package.svg"
   inkscape:output_extension="org.inkscape.output.svg.inkscape"
   inkscape:export-filename="/home/matthew/Desktop/package.png"
   inkscape:export-xdpi="90"
   inkscape:export-ydpi="90">
  <defs
     id="defs4">
    <linearGradient
       id="linearGradient3328">
      <stop
         style="stop-color:#d0d0d0;stop-opacity:1;"
         offset="0"
         id="stop3330" />
      <stop
         style="stop-color:#ffffff;stop-opacity:1;"
         offset="1"
         id="stop3332" />
    </linearGradient>
    <inkscape:perspective
       sodipodi:type="inkscape:persp3d"
       inkscape:vp_x="0 : 526.18109 : 1"
       inkscape:vp_y="0 : 1000 : 0"
       inkscape:vp_z="744.09448 : 526.18109 : 1"
       inkscape:persp3d-origin="372.04724 : 350.78739 : 1"
       id="perspective10" />
    <inkscape:perspective
       id="perspective2491"
       inkscape:persp3d-origin="270.04437 : 185.57625 : 1"
       inkscape:vp_z="540.08875 : 278.36438 : 1"
       inkscape:vp_y="0 : 1000 : 0"
       inkscape:vp_x="0 : 278.36438 : 1"
       sodipodi:type="inkscape:persp3d" />
    <inkscape:perspective
       id="perspective2517"
       inkscape:persp3d-origin="372.04724 : 350.78739 : 1"
       inkscape:vp_z="744.09448 : 526.18109 : 1"
       inkscape:vp_y="0 : 1000 : 0"
       inkscape:vp_x="0 : 526.18109 : 1"
       sodipodi:type="inkscape:persp3d" />
    <linearGradient
       inkscape:collect="always"
       xlink:href="#linearGradient3328"
       id="linearGradient3334"
       x1="0"
       y1="176.55324"
       x2="183.5446"
       y2="176.55324"
       gradientUnits="userSpaceOnUse"
       gradientTransform="matrix(1.9269104,0,0,0.5137931,-353.08534,0.4506788)" />
    <clipPath
       id="clipPath3353"
       clipPathUnits="userSpaceOnUse">
      <path
         id="path3355"
         d="M 0,910.234 L 0,0 L 5803,0 L 5803,910.234" />
    </clipPath>
    <inkscape:perspective
       id="perspective3343"
       inkscape:persp3d-origin="372.04724 : 350.78739 : 1"
       inkscape:vp_z="744.09448 : 526.18109 : 1"
       inkscape:vp_y="0 : 1000 : 0"
       inkscape:vp_x="0 : 526.18109 : 1"
       sodipodi:type="inkscape:persp3d" />
    <linearGradient
       inkscape:collect="always"
       xlink:href="#linearGradient3328"
       id="linearGradient3470"
       gradientUnits="userSpaceOnUse"
       gradientTransform="matrix(1.9232388,0,0,0.5145982,-353.49324,0.6396662)"
       x1="0"
       y1="176.55324"
       x2="183.5446"
       y2="176.55324" />
  </defs>
  <sodipodi:namedview
     id="base"
     pagecolor="#ffffff"
     bordercolor="#666666"
     borderopacity="1.0"
     gridtolerance="10000"
     guidetolerance="10"
     objecttolerance="10"
     inkscape:pageopacity="0.0"
     inkscape:pageshadow="2"
     inkscape:zoom="2.319209"
     inkscape:cx="106.37576"
     inkscape:cy="179.14404"
     inkscape:document-units="px"
     inkscape:current-layer="layer"
     showgrid="false"
     inkscape:window-width="1920"
     inkscape:window-height="1034"
     inkscape:window-x="0"
     inkscape:window-y="25"
     showborder="true"
     inkscape:showpageshadow="false" />
  <metadata
     id="metadata7">
    <rdf:RDF>
      <cc:Work
         rdf:about="">
        <dc:format>image/svg+xml</dc:format>
        <dc:type
           rdf:resource="http://purl.org/dc/dcmitype/StillImage" />
      </cc:Work>
    </rdf:RDF>
  </metadata>
  <g
     inkscape:groupmode="layer"
     id="layer"
     inkscape:label="Background"
     style="display:inline">
    <rect
       style="fill:url(#linearGradient3470);fill-opacity:1.0;stroke:#000000;stroke-width:2;stroke-linejoin:miter;stroke-miterlimit:4;stroke-dasharray:none;stroke-opacity:1"
       id="Background"
       width="353"
       height="182.00002"
       x="-353.49326"
       y="0.4936479"
       rx="0"
       ry="0"
       transform="matrix(0,-1,1,0,0,0)"
       inkscape:label="Background" />
    <g
       inkscape:label="EnterpriseDB"
       id="EnterpriseDB"
       transform="matrix(1.25,0,0,-1.25,-145.16573,259.15156)">
      <path
         id="path3359"
         style="fill:none;stroke:#231f20;stroke-width:0.47370118;stroke-linecap:butt;stroke-linejoin:miter;stroke-miterlimit:4;stroke-dasharray:none;stroke-opacity:1;display:inline"
         d="M 172.50551,-53.556036 L 122.92585,-53.556036" />
      <path
         id="path3361"
         style="fill:none;stroke:#231f20;stroke-width:0.47370118;stroke-linecap:butt;stroke-linejoin:miter;stroke-miterlimit:4;stroke-dasharray:none;stroke-opacity:1;display:inline"
         d="M 221.78914,-53.556036 L 180.32726,-53.556036" />
      <path
         id="path3363"
         style="fill:none;stroke:#231f20;stroke-width:0.47370118;stroke-linecap:butt;stroke-linejoin:miter;stroke-miterlimit:4;stroke-dasharray:none;stroke-opacity:1;display:inline"
         d="M 251.62687,-35.755238 L 158.92733,-35.755238" />
      <path
         id="path3365"
         style="fill:#ec222c;fill-opacity:1;fill-rule:nonzero;stroke:none;display:inline"
         d="M 123.94865,-50.073591 L 126.99533,-35.477673 L 137.80441,-35.477673 L 137.3011,-37.905392 L 129.49244,-37.905392 L 128.76339,-41.250906 L 136.32409,-41.250906 L 135.82078,-43.678625 L 128.23325,-43.678625 L 127.36818,-47.645872 L 135.85039,-47.645872 L 135.34708,-50.073591 L 123.94865,-50.073591" />
      <path
         id="path3367"
         style="fill:#ec222c;fill-opacity:1;fill-rule:nonzero;stroke:none;display:inline"
         d="M 139.74177,-39.504133 L 142.46278,-39.504133 L 142.18939,-40.888241 C 142.86941,-40.294243 143.50502,-39.870967 144.0953,-39.617466 C 144.68558,-39.364439 145.30748,-39.237676 145.96142,-39.237676 C 146.83493,-39.237676 147.52369,-39.489804 148.02747,-39.994035 C 148.53078,-40.498266 148.78279,-41.166706 148.78279,-42.000325 C 148.76905,-42.368557 148.64826,-43.068924 148.42017,-44.101451 L 147.15681,-50.073591 L 144.31458,-50.073591 L 145.59596,-44.086174 C 145.78284,-43.191518 145.88468,-42.655809 145.90221,-42.479569 C 145.90221,-42.107169 145.79255,-41.81435 145.57346,-41.60064 C 145.35414,-41.38738 145.04931,-41.280513 144.65874,-41.280513 C 144.23407,-41.280513 143.76222,-41.457227 143.24318,-41.810182 C 142.72415,-42.16361 142.31615,-42.629922 142.01961,-43.209092 C 141.80405,-43.622657 141.56211,-44.465514 141.29288,-45.737662 L 140.37694,-50.073591 L 137.53473,-50.073591 L 139.74177,-39.504133" />
      <path
         id="path3369"
         style="fill:#ec222c;fill-opacity:1;fill-rule:nonzero;stroke:none;display:inline"
         d="M 150.65793,-41.665395 L 151.10203,-39.504133 L 152.49731,-39.504133 L 152.84098,-37.846179 L 156.07376,-35.862555 L 155.32981,-39.504133 L 157.08251,-39.504133 L 156.63841,-41.665395 L 154.88808,-41.665395 L 153.95963,-46.061934 C 153.79265,-46.864076 153.70928,-47.3216 153.70928,-47.43446 C 153.70928,-47.653286 153.77915,-47.823984 153.91937,-47.946554 C 154.05958,-48.069148 154.31348,-48.130208 154.68084,-48.130208 C 154.80756,-48.130208 155.12446,-48.107092 155.6318,-48.060361 L 155.1877,-50.190169 C 154.69505,-50.290096 154.18961,-50.340048 153.67091,-50.340048 C 152.65932,-50.340048 151.92366,-50.144362 151.46488,-49.753464 C 151.00587,-49.362589 150.77636,-48.819491 150.77636,-48.124192 C 150.77636,-47.79992 150.90544,-47.051899 151.16408,-45.879678 L 152.06625,-41.665395 L 150.65793,-41.665395" />
      <path
         id="path3371"
         style="fill:#ec222c;fill-opacity:1;fill-rule:nonzero;stroke:none;display:inline"
         d="M 164.60583,-43.945082 C 164.61222,-43.817869 164.61601,-43.720713 164.61601,-43.653637 C 164.61601,-42.862604 164.4398,-42.269553 164.08784,-41.874037 C 163.73516,-41.478496 163.26336,-41.280513 162.67218,-41.280513 C 162.081,-41.280513 161.55093,-41.505331 161.08268,-41.954518 C 160.61418,-42.403706 160.2968,-43.067077 160.13077,-43.945082 L 164.60583,-43.945082 z M 167.01176,-45.691855 L 159.83921,-45.691855 C 159.83281,-45.804738 159.8295,-45.890762 159.8295,-45.950448 C 159.8295,-46.653137 160.03224,-47.219826 160.43726,-47.650965 C 160.84251,-48.082104 161.33705,-48.297212 161.91994,-48.297212 C 162.87848,-48.297212 163.6255,-47.804089 164.16173,-46.816895 L 166.70788,-47.231384 C 166.20883,-48.267605 165.54162,-49.044783 164.70673,-49.562894 C 163.87135,-50.081005 162.93485,-50.340048 161.89697,-50.340048 C 160.47302,-50.340048 159.31506,-49.889487 158.42332,-48.987418 C 157.53134,-48.085349 157.08582,-46.892309 157.08582,-45.407824 C 157.08582,-43.957114 157.48728,-42.665544 158.29044,-41.534014 C 159.3854,-40.003272 160.94862,-39.237676 162.97985,-39.237676 C 164.27424,-39.237676 165.30288,-39.639683 166.06625,-40.443672 C 166.82962,-41.247661 167.21118,-42.373175 167.21118,-43.820641 C 167.21118,-44.514542 167.14463,-45.138596 167.01176,-45.691855" />
      <path
         id="path3373"
         style="fill:#ec222c;fill-opacity:1;fill-rule:nonzero;stroke:none;display:inline"
         d="M 170.08845,-39.504133 L 172.74923,-39.504133 L 172.33095,-41.527548 C 173.33117,-40.000975 174.41452,-39.237676 175.58125,-39.237676 C 175.99432,-39.237676 176.43746,-39.340825 176.91116,-39.547145 L 175.81573,-41.893458 C 175.55496,-41.800944 175.27689,-41.754214 174.98273,-41.754214 C 174.48723,-41.754214 173.98345,-41.940639 173.47186,-42.313039 C 172.95979,-42.685416 172.55951,-43.182257 172.27173,-43.80399 C 171.98396,-44.425723 171.6995,-45.411069 171.41884,-46.760928 L 170.72344,-50.073591 L 167.88123,-50.073591 L 170.08845,-39.504133" />
      <path
         id="path3375"
         style="fill:#ec222c;fill-opacity:1;fill-rule:nonzero;stroke:none;display:inline"
         d="M 179.78606,-45.56604 C 179.78606,-46.39362 179.98643,-47.036172 180.38789,-47.493222 C 180.78888,-47.950273 181.26116,-48.178786 181.80521,-48.178786 C 182.2763,-48.178786 182.73058,-48.007164 183.16805,-47.66392 C 183.60575,-47.320677 183.96836,-46.751217 184.25709,-45.954617 C 184.54581,-45.158017 184.69005,-44.419707 184.69005,-43.739685 C 184.69005,-42.946804 184.5008,-42.338951 184.12279,-41.915651 C 183.74501,-41.492375 183.26421,-41.280513 182.68061,-41.280513 C 182.13656,-41.280513 181.64107,-41.475725 181.19319,-41.865249 C 180.74554,-42.25475 180.39903,-42.827455 180.15389,-43.58334 C 179.90851,-44.339225 179.78606,-44.999801 179.78606,-45.56604 z M 178.08784,-39.504133 L 180.7787,-39.504133 L 180.56458,-40.582443 C 181.14013,-40.100878 181.67944,-39.756261 182.18227,-39.549016 C 182.68511,-39.341772 183.22442,-39.237676 183.80044,-39.237676 C 184.90511,-39.237676 185.79377,-39.620711 186.46548,-40.385857 C 187.13719,-41.151453 187.47304,-42.293144 187.47304,-43.810456 C 187.47304,-45.721011 186.89252,-47.335006 185.73172,-48.652961 C 184.73671,-49.778002 183.55932,-50.340048 182.1998,-50.340048 C 180.80001,-50.340048 179.742,-49.771986 179.026,-48.635837 L 177.88059,-54.100051 L 175.03839,-54.100051 L 178.08784,-39.504133" />
      <path
         id="path3377"
         style="fill:#ec222c;fill-opacity:1;fill-rule:nonzero;stroke:none;display:inline"
         d="M 190.45831,-39.504133 L 193.11909,-39.504133 L 192.70105,-41.527548 C 193.70103,-40.000975 194.78462,-39.237676 195.95111,-39.237676 C 196.36394,-39.237676 196.80709,-39.340825 197.28079,-39.547145 L 196.18536,-41.893458 C 195.92435,-41.800944 195.64676,-41.754214 195.35259,-41.754214 C 194.85662,-41.754214 194.35332,-41.940639 193.84172,-42.313039 C 193.32917,-42.685416 192.92961,-43.182257 192.64183,-43.80399 C 192.35406,-44.425723 192.06913,-45.411069 191.7887,-46.760928 L 191.09307,-50.073591 L 188.25039,-50.073591 L 190.45831,-39.504133" />
      <path
         id="path3379"
         style="fill:#ec222c;fill-opacity:1;fill-rule:nonzero;stroke:none;display:inline"
         d="M 198.56215,-39.504133 L 201.40436,-39.504133 L 199.19762,-50.073591 L 196.35541,-50.073591 L 198.56215,-39.504133" />
      <path
         id="path3381"
         style="fill:#ec222c;fill-opacity:1;fill-rule:nonzero;stroke:none;display:inline"
         d="M 201.65968,-47.135175 L 204.41307,-46.69847 C 204.65821,-47.281336 204.96351,-47.693527 205.32897,-47.934996 C 205.69443,-48.176465 206.19229,-48.297212 206.82326,-48.297212 C 207.47365,-48.297212 207.99449,-48.150577 208.38577,-47.856812 C 208.65791,-47.656507 208.79481,-47.412717 208.79481,-47.125914 C 208.79481,-46.93255 208.72446,-46.75908 208.58567,-46.605956 C 208.43953,-46.459772 208.04446,-46.279813 207.40047,-46.067026 C 205.67406,-45.494322 204.60539,-45.041913 204.19469,-44.70883 C 203.5507,-44.189796 203.22882,-43.511172 203.22882,-42.67201 C 203.22882,-41.833772 203.53957,-41.111662 204.16319,-40.505656 C 205.03101,-39.660502 206.3209,-39.237676 208.03144,-39.237676 C 209.38978,-39.237676 210.41771,-39.487482 211.11334,-39.986171 C 211.80897,-40.484837 212.25046,-41.159766 212.43639,-42.01096 L 209.80142,-42.464766 C 209.66263,-42.083578 209.43786,-41.797226 209.12687,-41.606182 C 208.70315,-41.34991 208.19439,-41.2213 207.59942,-41.2213 C 207.00351,-41.2213 206.57528,-41.320754 206.31427,-41.519211 C 206.0535,-41.718141 205.92299,-41.946655 205.92299,-42.204775 C 205.92299,-42.469858 206.05539,-42.689134 206.31996,-42.86213 C 206.48457,-42.968547 207.01748,-43.154972 207.9168,-43.420955 C 209.30546,-43.82713 210.23439,-44.226816 210.7043,-44.619088 C 211.36511,-45.171423 211.69623,-45.837115 211.69623,-46.615667 C 211.69623,-47.620885 211.27534,-48.492898 210.43523,-49.231658 C 209.59418,-49.970893 208.40993,-50.340048 206.88153,-50.340048 C 205.35858,-50.340048 204.18262,-50.059712 203.35174,-49.499039 C 202.52111,-48.938366 201.95764,-48.150577 201.65968,-47.135175" />
      <path
         id="path3383"
         style="fill:#ec222c;fill-opacity:1;fill-rule:nonzero;stroke:none;display:inline"
         d="M 221.21833,-43.945082 C 221.22473,-43.817869 221.22852,-43.720713 221.22852,-43.653637 C 221.22852,-42.862604 221.05183,-42.269553 220.70034,-41.874037 C 220.34767,-41.478496 219.87586,-41.280513 219.28468,-41.280513 C 218.6935,-41.280513 218.16343,-41.505331 217.69518,-41.954518 C 217.22621,-42.403706 216.90884,-43.067077 216.74328,-43.945082 L 221.21833,-43.945082 z M 223.62379,-45.691855 L 216.45171,-45.691855 C 216.44532,-45.804738 216.44153,-45.890762 216.44153,-45.950448 C 216.44153,-46.653137 216.64427,-47.219826 217.04952,-47.650965 C 217.45454,-48.082104 217.94956,-48.297212 218.53245,-48.297212 C 219.49098,-48.297212 220.23753,-47.804089 220.77424,-46.816895 L 223.32038,-47.231384 C 222.82086,-48.267605 222.15365,-49.044783 221.31923,-49.562894 C 220.48386,-50.081005 219.54735,-50.340048 218.50947,-50.340048 C 217.08553,-50.340048 215.92709,-49.889487 215.03535,-48.987418 C 214.14337,-48.085349 213.69833,-46.892309 213.69833,-45.407824 C 213.69833,-43.957114 214.09979,-42.665544 214.90295,-41.534014 C 215.99743,-40.003272 217.56112,-39.237676 219.59188,-39.237676 C 220.88627,-39.237676 221.91491,-39.639683 222.67828,-40.443672 C 223.44165,-41.247661 223.82369,-42.373175 223.82369,-43.820641 C 223.82369,-44.514542 223.75713,-45.138596 223.62379,-45.691855" />
      <path
         id="path3387"
         style="fill:#231f20;fill-opacity:1;fill-rule:nonzero;stroke:none;display:inline"
         d="M 242.52186,-45.129335 L 244.81742,-45.129335 C 245.8489,-45.129335 246.59095,-45.056243 247.04334,-44.910059 C 247.49572,-44.763874 247.83442,-44.524253 248.06108,-44.191193 C 248.2868,-43.858584 248.40073,-43.502384 248.40073,-43.123044 C 248.40073,-42.750194 248.29343,-42.443946 248.08051,-42.204325 C 247.86781,-41.964703 247.56417,-41.805089 247.17195,-41.725081 C 246.95191,-41.68529 246.42255,-41.665395 245.58339,-41.665395 L 243.24544,-41.665395 L 242.52186,-45.129335 z M 241.19336,-51.494695 L 244.08839,-51.494695 C 245.3013,-51.494695 246.11536,-51.416984 246.52984,-51.260615 C 246.94433,-51.10427 247.27569,-50.8466 247.52438,-50.48763 C 247.77236,-50.128635 247.89742,-49.749769 247.89742,-49.350557 C 247.89742,-48.865748 247.71789,-48.465139 247.35977,-48.14918 C 247.00165,-47.833695 246.40597,-47.675479 245.57036,-47.675479 L 241.99084,-47.675479 L 241.19336,-51.494695 z M 237.71284,-53.833594 L 240.75945,-39.237676 L 245.74634,-39.237676 C 246.8278,-39.237676 247.58454,-39.270977 248.01679,-39.33713 C 248.73279,-39.437057 249.33984,-39.635964 249.83746,-39.934822 C 250.33532,-40.233657 250.71357,-40.631945 250.97269,-41.12971 C 251.2318,-41.627451 251.36136,-42.178413 251.36136,-42.782572 C 251.36136,-43.592577 251.13635,-44.294815 250.68776,-44.888789 C 250.23893,-45.482763 249.54519,-45.9324 248.60797,-46.237725 C 249.35074,-46.443571 249.93197,-46.810429 250.34906,-47.337777 C 250.76734,-47.865599 250.97648,-48.461444 250.97648,-49.124791 C 250.97648,-50.000973 250.72755,-50.832247 250.23064,-51.618662 C 249.73301,-52.405101 249.04733,-52.970842 248.17217,-53.315948 C 247.29677,-53.661046 246.10067,-53.833594 244.58341,-53.833594 L 237.71284,-53.833594" />
      <path
         id="path3385"
         style="fill:#231f20;fill-opacity:1;fill-rule:nonzero;stroke:none;display:inline"
         d="M 227.46716,-51.494695 L 228.9984,-51.494695 C 230.10568,-51.494695 230.90789,-51.426695 231.4048,-51.290695 C 231.90171,-51.154696 232.35671,-50.901171 232.77025,-50.529718 C 233.36332,-49.992636 233.86402,-49.276541 234.27093,-48.380938 C 234.67808,-47.485359 234.88177,-46.431089 234.88177,-45.21723 C 234.88177,-44.182856 234.71242,-43.405228 234.37562,-42.884346 C 234.03787,-42.363465 233.62149,-42.016976 233.12742,-41.84443 C 232.77972,-41.725081 232.16154,-41.665395 231.27335,-41.665395 L 229.51923,-41.665395 L 227.46716,-51.494695 z M 223.98664,-53.833594 L 227.03325,-39.237676 L 230.97918,-39.237676 C 232.07746,-39.237676 232.78043,-39.254327 233.08668,-39.287628 C 233.69278,-39.347314 234.23304,-39.469908 234.70958,-39.65586 C 235.18612,-39.841835 235.61909,-40.102726 236.00847,-40.437656 C 236.39809,-40.772586 236.73394,-41.175967 237.01698,-41.647347 C 237.30025,-42.118751 237.51839,-42.661375 237.67116,-43.275245 C 237.82464,-43.889114 237.90161,-44.561272 237.90161,-45.291246 C 237.90161,-46.86455 237.59987,-48.260216 236.9985,-49.47777 C 236.39619,-50.695798 235.6404,-51.663072 234.729,-52.380113 C 234.03053,-52.938015 233.13026,-53.349254 232.02654,-53.614787 C 231.40101,-53.760967 230.43987,-53.833594 229.14359,-53.833594 L 223.98664,-53.833594" />
      <text
         xml:space="preserve"
         style="font-size:8.70323086px;font-style:oblique;font-variant:normal;font-weight:normal;font-stretch:normal;text-align:start;line-height:100%;writing-mode:lr-tb;text-anchor:start;fill:#000000;fill-opacity:1;stroke:none;stroke-width:1px;stroke-linecap:butt;stroke-linejoin:miter;stroke-opacity:1;font-family:Bitstream Vera Sans;-inkscape-font-specification:Bitstream Vera Sans Oblique"
         x="251.1655"
         y="41.499866"
         id="text4898"
         transform="scale(1,-1)"
         sodipodi:linespacing="100%"><tspan
           sodipodi:role="line"
           id="tspan4900"
           x="251.1655"
           y="41.499866"
           style="font-size:8.70323086px;font-style:normal;font-variant:normal;font-weight:normal;font-stretch:normal;text-align:start;line-height:100%;writing-mode:lr-tb;text-anchor:start;font-family:Bitstream Vera Sans;-inkscape-font-specification:Bitstream Vera Sans">®</tspan></text>
    </g>
    <text
       xml:space="preserve"
       style="font-size:16.68673325px;font-style:oblique;font-variant:normal;font-weight:normal;font-stretch:normal;text-align:start;line-height:125%;writing-mode:lr-tb;text-anchor:start;fill:#404040;fill-opacity:1;stroke:none;stroke-width:1px;stroke-linecap:butt;stroke-linejoin:miter;stroke-opacity:1;font-family:Bitstream Vera Sans;-inkscape-font-specification:Bitstream Vera Sans Oblique"
       x="34.164139"
       y="290.11456"
       id="Packaged_by"
       sodipodi:linespacing="125%"
       inkscape:label="Packaged by"><tspan
         sodipodi:role="line"
         id="tspan3440"
         x="34.164139"
         y="290.11456">Packaged by:</tspan></text>
    <g
       style="display:inline"
       transform="matrix(0.2369796,0,0,-0.2369796,17.986119,324.6836)"
       inkscape:label="PostgreSQL"
       id="PostgreSQL">
      <path
         id="path2521"
         style="fill:#231f20;fill-opacity:1;fill-rule:nonzero;stroke:none"
         d="M -8.6118,420.0645 L -44.1621,420.0645 L -44.1621,455.8203 L -6.6826,455.8203 C 7.0347,455.8203 13.895,449.7686 13.895,437.666 C 13.895,425.9307 6.3921,420.0645 -8.6118,420.0645 M 16.9385,456.2388 C 12.0669,460.6016 5.2505,462.7832 -3.5083,462.7832 L -54.4185,462.501 L -54.4185,376.9688 L -44.1621,376.9688 L -44.2563,413.3833 L -6.374,413.3833 C 3.1265,413.3833 10.604,415.564 16.0601,419.9258 C 21.5161,424.2886 24.2451,430.3394 24.2451,438.082 C 24.2451,445.8242 21.8091,451.8755 16.9385,456.2388 z" />
      <path
         id="path2523"
         style="fill:#231f20;fill-opacity:1;fill-rule:nonzero;stroke:none"
         d="M 83.3281,394.9219 C 82.2876,392.0332 80.6641,389.6094 78.4604,387.6455 C 73.8672,383.1602 66.8569,380.9209 57.4268,380.9209 C 48.9141,380.9209 42.3774,383.0986 37.8169,387.46 C 33.2549,391.8193 30.9746,397.6533 30.9746,404.9619 C 30.9746,408.7681 31.5713,412.145 32.7651,415.0928 C 33.959,418.0405 35.688,420.5288 37.9536,422.5547 C 42.6685,426.8535 49.1592,429.0034 57.4268,429.0034 C 75.7358,429.0034 84.8906,420.9883 84.8906,404.9619 C 84.8906,401.1543 84.3687,397.8076 83.3281,394.9219 M 85.188,426.4741 C 78.936,432.1743 69.6826,435.0249 57.4268,435.0249 C 45.8428,435.0249 36.8945,432.1123 30.583,426.29 C 24.8843,421.02 22.0352,413.9111 22.0352,404.9629 C 22.0352,396.0762 24.9756,388.9053 30.8594,383.4521 C 34.1069,380.5088 37.8916,378.3799 42.2129,377.0625 C 46.5327,375.7451 51.605,375.0859 57.4268,375.0859 C 69.6211,375.0859 78.9058,377.9043 85.2808,383.543 C 90.979,388.6904 93.8301,395.8301 93.8301,404.9629 C 93.8301,414.1548 90.9482,421.3257 85.188,426.4741 z" />
      <path
         id="path2525"
         style="fill:#231f20;fill-opacity:1;fill-rule:nonzero;stroke:none"
         d="M 162.7886,392.4502 C 162.7886,380.9365 152.4731,375.1816 131.8428,375.1816 C 125.5371,375.1816 120.2266,375.5811 115.9102,376.3828 C 111.5938,377.1855 108.0898,378.5117 105.396,380.3604 C 103.3149,381.7705 101.6621,383.6074 100.4375,385.875 C 99.2124,388.1416 98.4185,390.9902 98.0513,394.4199 L 107.6489,394.5117 C 107.6489,389.9795 109.3276,386.6426 112.689,384.498 C 116.2935,381.9238 122.6787,380.6387 131.8442,380.6387 C 146.2627,380.6387 153.4727,384.25 153.4727,391.4775 C 153.4727,395.7031 151.0547,398.6113 146.2192,400.2051 C 145.2383,400.5117 139.4077,401.3223 128.7246,402.6387 C 118.042,403.9561 111.3857,405.1348 108.7549,406.1758 C 103.0615,408.4414 100.2153,412.5142 100.2153,418.394 C 100.2153,424.1509 102.7568,428.4385 107.8442,431.2554 C 110.3569,432.418 113.4976,433.3213 117.2671,433.9653 C 121.0366,434.6089 125.4033,434.9312 130.3682,434.9312 C 150.2251,434.9312 160.1538,428.6997 160.1538,416.2412 L 151.0264,416.2412 C 151.0264,424.9995 144.0459,429.3794 130.0874,429.3794 C 122.9863,429.3794 117.6899,428.4912 114.2002,426.7158 C 110.71,424.9395 108.9663,422.2134 108.9663,418.5396 C 108.9663,415.1094 111.3228,412.6294 116.0376,411.0991 C 118.7935,410.3018 125.1299,409.3823 135.0498,408.3418 C 143.9282,407.5449 150.0205,406.4141 153.3276,404.9424 C 159.6343,402.4932 162.7886,398.3281 162.7886,392.4502 z" />
      <path
         id="path2527"
         style="fill:#231f20;fill-opacity:1;fill-rule:nonzero;stroke:none"
         d="M 200.4897,376.8516 C 199.0195,376.6074 197.7168,376.4248 196.585,376.3027 C 195.4517,376.1836 194.6396,376.1211 194.1504,376.1211 C 187.9019,376.1211 183.3955,377.0254 180.6313,378.8379 C 177.8672,380.6465 176.4868,383.8232 176.4868,388.3662 L 176.4868,427.4033 L 165.1011,427.4033 L 165.1011,433.1436 L 176.3955,433.1436 L 176.4868,451.5864 L 185.2373,451.5864 L 185.2373,433.1436 L 200.4751,433.1436 L 200.4751,427.3096 L 185.2373,427.4033 L 185.2373,389.4238 C 185.2373,386.5957 185.9873,384.6445 187.4888,383.5684 C 188.9883,382.4922 191.6685,381.9561 195.5278,381.9561 C 196.0791,381.8936 196.6924,381.9121 197.3652,382.0156 C 198.0391,382.1191 199.0493,382.3506 200.397,382.707 L 200.4897,376.8516 z" />
      <path
         id="path2529"
         style="fill:#231f20;fill-opacity:1;fill-rule:nonzero;stroke:none"
         d="M 261.0107,389.8018 C 258.623,387.8438 255.9004,386.3447 252.8389,385.3027 C 249.7783,384.2627 246.2593,383.7422 242.2813,383.7422 C 223.9795,383.7422 214.8306,391.3008 214.8306,406.418 C 214.8306,413.4556 217.1709,418.9629 221.854,422.9414 C 226.5347,426.9194 233.1304,428.9087 241.6387,428.9087 C 250.2075,428.9087 256.7114,426.9033 261.1489,422.8955 C 265.5859,418.8862 267.8062,413.5156 267.8062,406.7852 C 267.8062,399.4414 265.5405,393.7813 261.0107,389.8018 M 276.5571,433.105 L 267.8062,433.105 L 267.7134,423.457 C 263.856,427.3745 261.0986,429.8511 259.4458,430.8926 C 254.5459,433.5845 248.2075,434.9312 240.4302,434.9312 C 229.0386,434.9312 220.3408,432.3291 214.3398,427.1255 C 208.6436,422.3506 205.7974,415.4326 205.7974,406.373 C 205.7974,401.9033 206.5176,397.9102 207.9585,394.3906 C 209.3994,390.8711 211.501,387.8857 214.2603,385.4385 C 220.2705,380.4199 228.7651,377.9092 239.7451,377.9092 C 252.9316,377.9092 262.2852,381.5156 267.8062,388.7305 L 267.8062,378.7422 C 267.8062,372.373 265.7988,367.4424 261.7881,363.9521 C 257.7759,360.46 251.1777,358.7139 241.9912,358.7139 C 233.3555,358.7139 227.2012,359.9043 223.5283,362.2813 C 220.7715,364.1094 218.8735,367.2822 217.833,371.793 L 208.8301,371.793 C 209.8096,365.4912 212.4751,360.9336 216.8242,358.1201 C 221.8477,354.8789 230.3325,353.2568 242.2798,353.2568 C 265.1299,353.2568 276.5571,361.752 276.5571,378.7422 L 276.5571,433.105 z" />
      <path
         id="path2531"
         style="fill:#231f20;fill-opacity:1;fill-rule:nonzero;stroke:none"
         d="M 323.8936,427.4199 C 321.2627,427.8472 318.8154,428.062 316.5518,428.062 C 302.167,428.062 294.9746,420.1748 294.9746,404.4014 L 294.9746,376.9688 L 286.3169,376.9688 L 286.2222,433.0991 L 294.9746,433.0127 L 294.9746,422.9985 L 295.4336,422.9985 C 296.9019,426.9443 299.2295,429.9365 302.4136,431.9717 C 305.9023,433.9443 311.1035,434.9312 318.0195,434.9312 C 319.4277,434.9312 320.6035,434.9312 321.5537,434.9312 C 322.5029,434.9312 323.2832,434.9312 323.8936,434.9312 L 323.8936,427.4199 z" />
      <path
         id="path2533"
         style="fill:#231f20;fill-opacity:1;fill-rule:nonzero;stroke:none"
         d="M 332.0313,408.5845 C 333.1328,414.9639 335.6123,419.9023 339.4668,423.3999 C 341.9775,425.4248 344.8252,426.9434 348.0059,427.9546 C 351.1904,428.9658 354.7725,429.4736 358.751,429.4736 C 366.5254,429.4736 372.873,427.3413 377.8027,423.0776 C 382.7305,418.8149 385.1924,413.9834 385.1924,408.5845 L 332.0313,408.5845 M 386.0498,425.8994 C 382.9854,428.9707 379.1865,431.2432 374.6523,432.7183 C 370.1182,434.1934 364.8193,434.9312 358.7529,434.9312 C 347.415,434.9312 338.623,432.2949 332.3711,427.0239 C 326.123,421.7534 322.9961,414.583 322.9961,405.5127 C 322.9961,396.4434 326,389.2422 332.001,383.9111 C 338.4932,378.0273 347.6504,375.0859 359.4736,375.0859 C 364.1875,375.0859 368.5508,375.6211 372.5635,376.6875 C 376.5762,377.7549 380.084,379.2666 383.085,381.2188 C 388.3525,385.002 391.6885,389.6699 393.1016,395.2227 L 383.6416,395.2227 C 380.3955,385.624 372.3154,380.8262 359.3975,380.8262 C 350.2744,380.8262 343.2627,383.1719 338.3672,387.8672 C 334.1416,391.8896 332.0313,397.1016 332.0313,403.5039 L 394.4141,403.5039 C 394.4141,413.0259 391.6289,420.4917 386.0498,425.8994 z" />
      <path
         id="path2535"
         style="fill:#000000;fill-opacity:1;fill-rule:nonzero;stroke:none"
         d="M 486.8633,399.8984 C 486.8633,383.2324 473.4238,374.8994 446.542,374.8994 C 430.4355,374.8994 418.6797,377.7686 411.2715,383.5117 C 405.207,388.2295 402.1787,395.4258 402.1787,405.1035 L 413,405.1035 C 413,389.5449 424.1777,381.7686 446.5391,381.7686 C 457.2598,381.7686 465.0107,383.3594 469.79,386.542 C 473.833,389.3545 475.8545,393.7617 475.8545,399.7598 C 475.8545,405.6963 473.0977,409.8574 467.583,412.2456 C 464.458,413.5303 456.8291,415.1538 444.6992,417.1118 C 429.4453,419.4375 419.5527,421.7627 415.0195,424.0879 C 408.4658,427.5156 405.1885,433.3301 405.1885,441.5322 C 405.1885,449.1821 407.9775,454.8735 413.5527,458.6079 C 419.5527,462.708 429.8467,464.7593 444.4287,464.7593 C 470.7734,464.7593 483.9463,456.0088 483.9463,438.5098 L 473.0322,438.5098 C 473.0322,451.6187 463.25,458.1724 443.6885,458.1724 C 433.877,458.1724 426.7021,456.854 422.165,454.2192 C 417.8711,451.4004 415.7275,447.2651 415.7275,441.812 C 415.7275,436.1133 418.4844,432.0996 424.001,429.771 C 426.9385,428.4224 435.5781,426.5537 449.916,424.1631 C 463.3965,422.1401 472.4932,419.7822 477.2129,417.0864 C 483.6475,413.7773 486.8633,408.0469 486.8633,399.8984 z" />
      <path
         id="path2537"
         style="fill:#000000;fill-opacity:1;fill-rule:nonzero;stroke:none"
         d="M 574.7627,391.3936 C 570.7178,388.1543 566.1484,385.7246 561.0586,384.1025 C 555.9668,382.4834 550.2666,381.6719 543.9512,381.6719 C 531.0732,381.6719 520.666,385.1426 512.7217,392.082 C 504.7842,399.0225 500.8145,408.2715 500.8145,419.8286 C 500.8145,431.875 504.751,441.2603 512.6309,447.9883 C 520.5127,454.7148 530.9512,458.0781 543.9512,458.0781 C 557.1338,458.0781 567.499,454.562 575.041,447.5303 C 579.0234,444.1035 581.9678,440.0991 583.8711,435.5132 C 585.7695,430.9258 586.7227,425.6982 586.7227,419.8286 C 586.7227,407.8428 582.7354,398.3662 574.7627,391.3936 M 580.5146,385.7207 C 586.1543,389.6963 590.3252,394.5156 593.0234,400.1758 C 595.7227,405.8359 597.0732,412.3706 597.0732,419.7759 C 597.0732,433.0566 592.6592,443.7056 583.8369,451.7227 C 579.1191,456.1289 573.4189,459.4033 566.7412,461.5454 C 560.0635,463.6875 552.4326,464.7593 543.8564,464.7593 C 527.1904,464.7593 514.1094,460.7197 504.6133,452.6416 C 495.1143,444.564 490.3691,433.6094 490.3691,419.7803 C 490.3691,406.3184 495.1592,395.4551 504.7451,387.1943 C 514.3301,378.9336 527.4258,374.8037 544.0244,374.8037 C 550.5156,374.8037 556.1807,375.2432 561.0186,376.1211 C 565.8574,377.001 569.9619,378.3496 573.332,380.168 L 589.3184,369.0879 L 595.9941,375.2207 L 580.5146,385.7207 z" />
      <path
         id="path2539"
         style="fill:#000000;fill-opacity:1;fill-rule:nonzero;stroke:none"
         d="M 678.1133,376.9688 L 604.1729,376.9688 L 604.1729,462.5981 L 614.3369,462.7832 L 614.3369,384.1201 L 678.2061,384.1201 L 678.1133,376.9688 z" />
    </g>
    <g
       transform="matrix(0.3777487,0,0,0.3777487,9.2543031,18.039783)"
       style="fill:none;fill-rule:nonzero;stroke:#ffffff;stroke-width:12.46510029;stroke-linecap:round;stroke-linejoin:round;stroke-miterlimit:4;display:inline"
       id="Elephant"
       inkscape:label="Elephant">
      <path
         id="path2462"
         d="M 323.205,324.227 C 326.038,300.626 325.189,297.165 342.768,300.988 L 347.231,301.38 C 360.748,301.995 378.43,299.206 388.818,294.38 C 403.15629,287.72701 413.75252,278.21753 413.69804,273.44982 C 413.66755,270.78181 410.30176,269.5987 402.39,271.232 C 352.093,281.608 348.635,264.577 348.635,264.577 C 401.746,185.774 423.948,85.741 404.784,61.255 C 352.514,-5.534 262.036,26.049 260.522,26.869 L 260.04,26.958 C 250.102,24.896 238.98,23.664 226.486,23.462 C 203.725,23.088 186.454,29.429 173.353,39.366 C 173.353,39.366 11.945,-27.132 19.454,122.994 C 21.051,154.93 65.231,364.649 117.924,301.304 C 137.183,278.141 155.795,258.556 155.795,258.556 C 165.037,264.696 176.102,267.828 187.707,266.703 L 188.604,265.938 C 188.323,268.814 188.447,271.627 188.963,274.957 C 175.391,290.124 179.379,292.787 152.24,298.373 C 124.783,304.032 140.914,314.107 151.443,316.74 C 164.211,319.933 193.748,324.456 213.711,296.516 L 212.916,299.704 C 218.241,303.964 217.881,330.323 218.636,349.156 C 219.392,367.99 220.653,385.565 224.492,395.927 C 228.331,406.287 232.861,432.977 268.528,425.333 C 298.337,418.945 321.128,409.751 323.205,324.226"
         style="fill:#000000;stroke:#000000;stroke-width:37.39530182;stroke-linecap:butt;stroke-linejoin:miter"
         sodipodi:nodetypes="ccccsccsccccsccccccsccsssc" />
      <path
         id="path2464"
         d="M 402.395,271.23 C 352.093,281.606 348.635,264.575 348.635,264.575 C 401.746,185.767 423.948,85.732 404.788,61.249 C 352.518,-5.536 262.036,26.049 260.526,26.869 L 260.04,26.956 C 250.102,24.893 238.98,23.664 226.48,23.46 C 203.719,23.087 186.454,29.427 173.353,39.362 C 173.353,39.362 11.942,-27.133 19.449,122.992 C 21.046,154.93 65.225,364.649 117.92,301.304 C 137.18,278.141 155.789,258.556 155.789,258.556 C 165.032,264.696 176.097,267.828 187.697,266.703 L 188.598,265.938 C 188.318,268.814 188.446,271.627 188.959,274.957 C 175.384,290.124 179.373,292.787 152.236,298.373 C 124.777,304.032 140.908,314.107 151.44,316.74 C 164.208,319.933 193.747,324.456 213.706,296.516 L 212.91,299.704 C 218.229,303.964 221.964,327.415 221.338,348.673 C 220.712,369.932 220.294,384.527 224.485,395.927 C 228.676,407.327 232.853,432.977 268.527,425.333 C 298.336,418.945 313.783,402.391 315.932,374.778 C 317.457,355.147 320.908,358.049 321.126,340.498 L 323.894,332.189 C 327.086,305.578 324.401,296.993 342.766,300.986 L 347.229,301.378 C 360.746,301.993 378.437,299.204 388.82,294.378 C 411.178,284.002 424.438,266.678 402.393,271.23 L 402.395,271.23 z"
         style="fill:#336791;stroke:none" />
      <path
         id="path2466"
         d="M 215.866,286.484 C 214.481,336 216.214,385.861 221.059,397.979 C 225.907,410.097 236.282,433.667 271.959,426.024 C 301.765,419.634 312.61,407.268 317.316,379.973 C 320.782,359.891 327.464,304.119 328.321,292.692" />
      <path
         id="path2468"
         d="M 173.104,38.256 C 173.104,38.256 11.583,-27.76 19.092,122.365 C 20.689,154.303 64.871,364.029 117.565,300.681 C 136.821,277.515 154.236,259.346 154.236,259.346" />
      <path
         id="path2470"
         d="M 260.349,26.207 C 254.758,27.96 350.197,-8.682 404.436,60.624 C 423.595,85.108 401.393,185.143 348.283,263.953" />
      <path
         id="path2472"
         d="M 348.282,263.953 C 348.282,263.953 351.743,280.989 402.046,270.606 C 424.086,266.054 410.822,283.38 388.469,293.761 C 370.124,302.275 328.995,304.457 328.323,292.692 C 326.594,262.337 349.97,271.559 348.283,263.953 C 346.758,257.103 336.304,250.38 329.389,233.615 C 323.352,218.982 246.593,106.766 350.676,123.432 C 354.489,122.643 323.53,24.43 226.123,22.833 C 128.738,21.236 131.933,142.595 131.933,142.595"
         style="stroke-linejoin:bevel" />
      <path
         id="path2474"
         d="M 188.604,274.334 C 175.027,289.5 179.02,292.163 151.881,297.751 C 124.422,303.411 140.555,313.484 151.084,316.116 C 163.852,319.311 193.391,323.834 213.35,295.887 C 219.428,287.378 213.314,273.801 204.965,270.34 C 200.931,268.669 195.537,266.575 188.604,274.334 L 188.604,274.334 z" />
      <path
         id="path2476"
         d="M 187.715,274.069 C 186.347,265.152 190.645,254.541 195.251,242.127 C 202.173,223.501 218.144,204.872 205.368,145.788 C 195.845,101.759 131.972,136.625 131.932,142.595 C 131.893,148.563 134.821,172.855 130.865,201.143 C 125.703,238.056 154.353,269.275 187.344,266.081" />
      <path
         id="path2478"
         d="M 172.517,141.7 C 172.229,143.739 176.25,149.18 181.493,149.907 C 186.727,150.637 191.207,146.385 191.491,144.348 C 191.775,142.309 187.759,140.063 182.514,139.333 C 177.277,138.602 172.795,139.666 172.518,141.7 L 172.517,141.7 z"
         style="fill:#ffffff;stroke-width:4.15500021;stroke-linecap:butt;stroke-linejoin:miter" />
      <path
         id="path2480"
         d="M 331.941,137.543 C 332.225,139.582 328.209,145.023 322.965,145.75 C 317.727,146.48 313.247,142.228 312.96,140.191 C 312.683,138.152 316.7,135.906 321.939,135.176 C 327.178,134.446 331.657,135.509 331.941,137.544 L 331.941,137.543 z"
         style="fill:#ffffff;stroke-width:2.0775001;stroke-linecap:butt;stroke-linejoin:miter" />
      <path
         id="path2482"
         d="M 350.676,123.432 C 351.539,139.426 347.231,150.32 346.688,167.346 C 345.884,192.094 358.487,220.42 339.497,248.781" />
      <path
         id="path2484"
         style="stroke-width:3"
         d="" />
    </g>
  </g>
</svg>
